<svg id="Layer_1" data-name="Layer 1" xmlns="http://www.w3.org/2000/svg" viewBox="0 0 659.2 267.04"><defs><style>.cls-1{fill:#fff;}.cls-2{fill:none;stroke-miterlimit:10;stroke-width:0.51px;}.cls-2,.cls-3{stroke:#fff;}.cls-3{stroke-linejoin:round;stroke-width:6.57px;}.cls-4{font-size:61.11px;fill:#999;font-family:NotoSans-Black, Noto Sans;font-weight:800;}.cls-5{letter-spacing:-0.04em;}.cls-6{letter-spacing:-0.07em;}</style></defs><title>wrdsb_wats</title><path d="M274.88,141.84A118.67,118.67,0,1,1,156.21,23.19,118.68,118.68,0,0,1,274.88,141.84ZM156.21,58.77a83.08,83.08,0,1,0,83,83.07A83.08,83.08,0,0,0,156.21,58.77Z" transform="translate(-37.28 -22.94)"/><path class="cls-1" d="M239.26,141.84a83.06,83.06,0,1,1-83-83.07A83.07,83.07,0,0,1,239.26,141.84Z" transform="translate(-37.28 -22.94)"/><path class="cls-2" d="M274.88,141.84A118.67,118.67,0,1,1,156.21,23.19,118.68,118.68,0,0,1,274.88,141.84Z" transform="translate(-37.28 -22.94)"/><path d="M136.85,88.7a18.6,18.6,0,0,1-4.06,20.79c-4.76,4.64-11.45,6-18,4.7a18.86,18.86,0,0,1-13.09-12A18.55,18.55,0,0,1,107.36,82c5.28-5,14.15-5.62,20.51-2.57a19.88,19.88,0,0,1,9,9.25" transform="translate(-37.28 -22.94)"/><path class="cls-3" d="M143.69,117.8c12.29-2.51,23.79-7.14,34.86-12.82l-1.56,3.2L164.43,130.9c2.62,1.54,5.88,2.08,8.88,3.1,22,5.35,46,1.18,65.9-5.66l-39.34,76.85-2.56,5.14h-3l-26.77-47.89c-3.63-5.83-6.68-11.91-10.26-17.8l-.92,1.28-35.74,64.52h-3l-52-92.64-10-17.53c24.38,17.75,57.47,25,88,17.53" transform="translate(-37.28 -22.94)"/><path d="M143.69,117.8c12.29-2.51,23.79-7.14,34.86-12.82l-1.56,3.2L164.43,130.9c2.62,1.54,5.88,2.08,8.88,3.1,22,5.35,46,1.18,65.9-5.66l-39.34,76.85-2.56,5.14h-3l-26.77-47.89c-3.63-5.83-6.68-11.91-10.26-17.8l-.92,1.28-35.74,64.52h-3l-52-92.64-10-17.53c24.38,17.75,57.47,25,88,17.53" transform="translate(-37.28 -22.94)"/><path d="M208.05,112.54a13.45,13.45,0,0,1-1.56,12.71,13.11,13.11,0,0,1-13.67,5c-4.49-.85-8.61-5.3-9.52-9.73a13.26,13.26,0,0,1,4.23-12.73c3.19-3,8-3.62,12.18-2.67,3.52.91,6.84,4.12,8.34,7.44" transform="translate(-37.28 -22.94)"/><path class="cls-1" d="M68.25,81.84l8,3.66,2.14,1.11-1.58-1.76L71,78.26l2-2.6,7.85,3.82L83,80.57,81.5,78.81,75.88,72l1.93-2.51,9.25,12.43-1.83,2.37-8-3.91L74.62,79l2,2.18,5.81,6.76-1.77,2.3-14.4-5.78Z" transform="translate(-37.28 -22.94)"/><path class="cls-1" d="M83.17,64.6l2.6-2.38,14,7.42-2.5,2.29-2.8-1.59-4,3.71,1.32,3-2.41,2.19Zm6.12,7L92.11,69l-5.36-3Z" transform="translate(-37.28 -22.94)"/><path class="cls-1" d="M100.25,51.26l1.52,2.15L98.11,56l7,10-2.57,1.8-7-10-3.67,2.58-1.51-2.17Z" transform="translate(-37.28 -22.94)"/><path class="cls-1" d="M114.48,46.77l-7,3.58,1.44,2.82,6.46-3.28,1.17,2.31L110,55.48l1.73,3.42,7.37-3.74,1.21,2.39-10.08,5.12-6.75-13.3,9.76-5Z" transform="translate(-37.28 -22.94)"/><path class="cls-1" d="M126.91,40a3.45,3.45,0,0,1,1.65.55,4.4,4.4,0,0,1,1.1,1,4.12,4.12,0,0,1,.75,1.41,4.43,4.43,0,0,1,.14,2.15A3,3,0,0,1,129.31,47a2.77,2.77,0,0,1,1.76.66,4.89,4.89,0,0,1,1.13,2.09l.31,1A7,7,0,0,0,133,52a1.26,1.26,0,0,0,.81.64l.11.35L130.67,54a8,8,0,0,1-.44-.7,7.43,7.43,0,0,1-.53-1.18l-.44-1.31a2.84,2.84,0,0,0-1-1.65,2.48,2.48,0,0,0-1.84.09l-2.9.94,1.81,5.57-2.9.94-4.61-14.19,6.79-2.2A6.06,6.06,0,0,1,126.91,40Zm-5.44,4.09,1.24,3.81,3.19-1a3.63,3.63,0,0,0,1.35-.7,1.68,1.68,0,0,0,.32-1.87,1.89,1.89,0,0,0-1.38-1.47,3.28,3.28,0,0,0-1.45.19Z" transform="translate(-37.28 -22.94)"/><path class="cls-1" d="M133.79,37.82l3.07-.52,2,12.07,7.35-1.23.44,2.64-10.42,1.75Z" transform="translate(-37.28 -22.94)"/><path class="cls-1" d="M159.6,49.08a7.75,7.75,0,0,1-9.77.17,8,8,0,0,1-2.37-6.12c-.05-2.75.67-4.8,2.16-6.19a7.75,7.75,0,0,1,9.77-.17c1.53,1.34,2.32,3.39,2.36,6.12A8,8,0,0,1,159.6,49.08Zm-2-2.24a6.2,6.2,0,0,0,1-3.9,6.1,6.1,0,0,0-1.16-3.86,3.52,3.52,0,0,0-3-1.32,3.58,3.58,0,0,0-2.93,1.41,5.93,5.93,0,0,0-1,3.91,6,6,0,0,0,1.16,3.86,3.86,3.86,0,0,0,5.9-.1Z" transform="translate(-37.28 -22.94)"/><path class="cls-1" d="M175.51,51a7.73,7.73,0,0,1-9.66-1.5,8,8,0,0,1-1.29-6.43c.42-2.71,1.48-4.61,3.18-5.73a7.75,7.75,0,0,1,9.66,1.51q1.9,2.37,1.28,6.42A8.05,8.05,0,0,1,175.51,51Zm-1.58-2.54a6,6,0,0,0,1.67-3.67,6.06,6.06,0,0,0-.47-4,3.53,3.53,0,0,0-2.71-1.8,3.58,3.58,0,0,0-3.12.88,6.16,6.16,0,0,0-1.69,3.68,6.08,6.08,0,0,0,.49,4,3.63,3.63,0,0,0,2.71,1.8A3.57,3.57,0,0,0,173.93,48.48Z" transform="translate(-37.28 -22.94)"/><path class="cls-1" d="M199.86,45.26a3.54,3.54,0,0,1,.88,1.49A4.72,4.72,0,0,1,201,48.2a4.08,4.08,0,0,1-.33,1.55,4.71,4.71,0,0,1-1.29,1.74,3,3,0,0,1-2.2.66,2.81,2.81,0,0,1,.91,1.66,4.92,4.92,0,0,1-.49,2.32l-.39.92a9.23,9.23,0,0,0-.45,1.32,1.27,1.27,0,0,0,.21,1l-.14.34-3.18-1.31a7.62,7.62,0,0,1,.12-.81,6.58,6.58,0,0,1,.37-1.25l.5-1.28a2.78,2.78,0,0,0,.27-2A2.52,2.52,0,0,0,193.41,52l-2.82-1.17-2.22,5.42-2.82-1.16,5.68-13.8,6.6,2.72A6.41,6.41,0,0,1,199.86,45.26Zm-6.81-.41-1.51,3.7,3.1,1.28a3.48,3.48,0,0,0,1.48.35A1.67,1.67,0,0,0,197.57,49a1.85,1.85,0,0,0-.1-2,2.93,2.93,0,0,0-1.23-.79Z" transform="translate(-37.28 -22.94)"/><path class="cls-1" d="M214.61,56l-6.76-4.08-1.64,2.72,6.2,3.74-1.35,2.22-6.19-3.75-2,3.29L210,64.41l-1.4,2.3-9.67-5.84L206.6,48.1,216,53.75Z" transform="translate(-37.28 -22.94)"/><path class="cls-1" d="M224.44,66.44a2.89,2.89,0,0,0,.05-2.75,4,4,0,0,0-1.09-1.36,3.72,3.72,0,0,0-3.13-.87,6.26,6.26,0,0,0-3.53,2.37c-1.18,1.41-1.7,2.67-1.54,3.79a4.1,4.1,0,0,0,1.44,2.71,3.75,3.75,0,0,0,2.55,1,3.86,3.86,0,0,0,2.46-1L219,68.07l1.61-1.91,4.75,4-5.17,6.12L218.63,75l1-1.63a7.16,7.16,0,0,1-2.2.1,5.69,5.69,0,0,1-2.81-1.38,6.33,6.33,0,0,1-2.39-4.71,7.85,7.85,0,0,1,2.13-5.58,8.29,8.29,0,0,1,5.28-3.15A6.77,6.77,0,0,1,225,60.34a6.92,6.92,0,0,1,2.57,4,5.41,5.41,0,0,1-.82,4Z" transform="translate(-37.28 -22.94)"/><path class="cls-1" d="M224.1,80.68,222,78.41,232.9,68.24,235,70.51Z" transform="translate(-37.28 -22.94)"/><path class="cls-1" d="M234,91.21a7.76,7.76,0,0,1-5.78-7.89,8.06,8.06,0,0,1,3.64-5.47c2.19-1.61,4.28-2.21,6.3-1.8A6.48,6.48,0,0,1,242.47,79a6.58,6.58,0,0,1,1.48,5c-.22,2-1.43,3.84-3.64,5.46A8.08,8.08,0,0,1,234,91.21Zm.67-2.92A7.5,7.5,0,0,0,241,83.71a3.51,3.51,0,0,0-.62-3.18A3.6,3.6,0,0,0,237.49,79a7.36,7.36,0,0,0-6.26,4.59,3.57,3.57,0,0,0,.64,3.19A3.52,3.52,0,0,0,234.7,88.29Z" transform="translate(-37.28 -22.94)"/><path class="cls-1" d="M248.64,89,250.11,92l-6.66,10,9.31-4.66,1.3,2.6-13.35,6.68-1.4-2.79,6.76-10.17-9.47,4.73-1.29-2.6Z" transform="translate(-37.28 -22.94)"/><path class="cls-1" d="M66.21,169.72a5,5,0,0,1-1.15,3,7,7,0,0,1-2,1.66,10.74,10.74,0,0,1-2.31.93,10,10,0,0,1-5.18.19,5.43,5.43,0,0,1-4-4.08l-1.71-6.2,14.38-4,1.71,6.19A8.11,8.11,0,0,1,66.21,169.72Zm-3.72-4.91-9.37,2.59.76,2.78a3.14,3.14,0,0,0,2.93,2.4,7.54,7.54,0,0,0,2.85-.31,6.88,6.88,0,0,0,3.19-1.62,3,3,0,0,0,.42-3.06Z" transform="translate(-37.28 -22.94)"/><path class="cls-1" d="M55.73,183.54l-1.14-2.88,13.85-5.52L69.59,178Z" transform="translate(-37.28 -22.94)"/><path class="cls-1" d="M62.47,187.37a3.06,3.06,0,0,0-1.09,1.21,3.3,3.3,0,0,0,.42,2.78,5.08,5.08,0,0,0,1.06,1.5,1.73,1.73,0,0,0,2.15.38,1.28,1.28,0,0,0,.72-1.1,7.48,7.48,0,0,0-.35-2.16l-.43-1.6a10.27,10.27,0,0,1-.52-3.43,3.67,3.67,0,0,1,2.17-2.83,4.28,4.28,0,0,1,3.63-.24,6.37,6.37,0,0,1,3.19,3.22,6.69,6.69,0,0,1,.78,4.19,4.41,4.41,0,0,1-2.4,3.25l-1.39-2.66a2.09,2.09,0,0,0,1.14-1.94,4.08,4.08,0,0,0-.53-1.83,3.47,3.47,0,0,0-1.34-1.51,1.54,1.54,0,0,0-1.55,0,1.27,1.27,0,0,0-.71,1.2,8.92,8.92,0,0,0,.37,2l.67,2.61a6.77,6.77,0,0,1,.23,2.79,3.63,3.63,0,0,1-2.08,2.59,4.24,4.24,0,0,1-3.74.17,6.53,6.53,0,0,1-3.26-3.32,7.24,7.24,0,0,1-1-4.73,4.43,4.43,0,0,1,2.46-3.19Z" transform="translate(-37.28 -22.94)"/><path class="cls-1" d="M83.26,201.17l-2.15,1.52-2.59-3.63-10,7.13-1.82-2.56,10-7.12-2.6-3.65,2.15-1.53Z" transform="translate(-37.28 -22.94)"/><path class="cls-1" d="M90.37,209.33a3.78,3.78,0,0,1,.21,1.73,4.64,4.64,0,0,1-.4,1.41,4.39,4.39,0,0,1-1,1.27,4.44,4.44,0,0,1-1.87,1.06,3,3,0,0,1-2.28-.29,2.9,2.9,0,0,1,.15,1.88,5,5,0,0,1-1.4,1.91l-.73.68a8.06,8.06,0,0,0-.94,1,1.16,1.16,0,0,0-.22,1l-.29.26-2.35-2.49c.17-.3.32-.52.44-.7a7,7,0,0,1,.84-1l1-1a2.93,2.93,0,0,0,1-1.67,2.5,2.5,0,0,0-.88-1.62l-2.1-2.21-4.23,4-2.1-2.21,10.82-10.27L89,207.35A6.42,6.42,0,0,1,90.37,209.33Zm-6-3.16-2.91,2.76,2.3,2.44a4.13,4.13,0,0,0,1.21.92,1.68,1.68,0,0,0,1.83-.52,1.86,1.86,0,0,0,.73-1.87,3,3,0,0,0-.8-1.24Z" transform="translate(-37.28 -22.94)"/><path class="cls-1" d="M86.91,225.67l-2.35-2,9.67-11.35,2.36,2Z" transform="translate(-37.28 -22.94)"/><path class="cls-1" d="M98.88,218.22a7,7,0,0,1,7.94,6.16,5.35,5.35,0,0,1-.73,2.87l-2.57-1.75a4.45,4.45,0,0,0,.29-1.77,3.13,3.13,0,0,0-1.5-2.19,3,3,0,0,0-2.94-.34,6.65,6.65,0,0,0-3,2.66,5.89,5.89,0,0,0-1.27,3.68A3.16,3.16,0,0,0,96.54,230a2.9,2.9,0,0,0,2.62.49,4.41,4.41,0,0,0,1.61-1l2.56,1.74a6.64,6.64,0,0,1-3.92,2.13,6,6,0,0,1-4.35-1.11,6.36,6.36,0,0,1-3-4.53,8.29,8.29,0,0,1,1.7-5.71A8.18,8.18,0,0,1,98.88,218.22Z" transform="translate(-37.28 -22.94)"/><path class="cls-1" d="M120.37,228.8l-1.17,2.36-4-2-5.41,11-2.82-1.4,5.42-11-4-2,1.17-2.37Z" transform="translate(-37.28 -22.94)"/><path class="cls-1" d="M126.86,241.84a3,3,0,0,0,.17,1.62,3.31,3.31,0,0,0,2.33,1.56,6,6,0,0,0,1.83.23,1.74,1.74,0,0,0,1.73-1.34,1.3,1.3,0,0,0-.34-1.28,7.86,7.86,0,0,0-1.83-1.2l-1.47-.74a10.43,10.43,0,0,1-2.88-1.93,3.67,3.67,0,0,1-.65-3.51A4.33,4.33,0,0,1,128,232.4a6.19,6.19,0,0,1,4.53-.18,6.63,6.63,0,0,1,3.63,2.23,4.42,4.42,0,0,1,.79,4l-2.9-.76a2.14,2.14,0,0,0-.68-2.15,4.29,4.29,0,0,0-1.7-.83,3.54,3.54,0,0,0-2,0,1.54,1.54,0,0,0-1.05,1.13,1.28,1.28,0,0,0,.4,1.33,9.07,9.07,0,0,0,1.76,1.1l2.38,1.26a6.57,6.57,0,0,1,2.22,1.69,3.68,3.68,0,0,1,.53,3.3,4.28,4.28,0,0,1-2.39,2.87,6.67,6.67,0,0,1-4.66.19,7.26,7.26,0,0,1-4.15-2.47,4.36,4.36,0,0,1-.7-3.95Z" transform="translate(-37.28 -22.94)"/><path class="cls-1" d="M141.44,236.19a6.18,6.18,0,0,1,4.76-1.34c2.46.28,4.18,1.27,5.15,3a5.41,5.41,0,0,1,.71,2.88l-3.1-.34a4.1,4.1,0,0,0-.58-1.68,3.09,3.09,0,0,0-2.35-1.24,3.05,3.05,0,0,0-2.76,1.08,6.72,6.72,0,0,0-1.37,3.76,5.87,5.87,0,0,0,.61,3.86,3.17,3.17,0,0,0,2.43,1.5,2.87,2.87,0,0,0,2.54-.8,4.72,4.72,0,0,0,1-1.64l3.08.34a6.77,6.77,0,0,1-2.46,3.72,6,6,0,0,1-4.36,1.06,6.28,6.28,0,0,1-4.75-2.58,9.79,9.79,0,0,1,1.49-11.62Z" transform="translate(-37.28 -22.94)"/><path class="cls-1" d="M155,250.75l-.64-14.92,3.09-.13.25,5.68,5.79-.25-.24-5.68,3.09-.13.64,14.9-3.09.13-.28-6.65-5.8.25.29,6.66Z" transform="translate(-37.28 -22.94)"/><path class="cls-1" d="M182.73,246.07a7.72,7.72,0,0,1-9.58,2,8,8,0,0,1-3.46-5.56q-.81-4,1-6.49a7.74,7.74,0,0,1,9.57-2c1.75,1,2.9,2.9,3.45,5.58A8.05,8.05,0,0,1,182.73,246.07Zm-2.37-1.82a6,6,0,0,0,.28-4,6.14,6.14,0,0,0-1.83-3.59,3.87,3.87,0,0,0-5.78,1.17,6.17,6.17,0,0,0-.31,4,6.08,6.08,0,0,0,1.88,3.58,3.84,3.84,0,0,0,5.76-1.18Z" transform="translate(-37.28 -22.94)"/><path class="cls-1" d="M199.44,240.33a7.76,7.76,0,0,1-9.13,3.52,8.08,8.08,0,0,1-4.32-4.93c-1-2.56-1-4.75-.1-6.56a7.77,7.77,0,0,1,9.13-3.52c1.9.75,3.33,2.38,4.32,4.95A8.06,8.06,0,0,1,199.44,240.33Zm-2.63-1.41a6.16,6.16,0,0,0-.38-4,6,6,0,0,0-2.41-3.21,3.83,3.83,0,0,0-5.5,2.11,6,6,0,0,0,.36,4,6.17,6.17,0,0,0,2.43,3.24,3.6,3.6,0,0,0,3.25.2A3.56,3.56,0,0,0,196.81,238.92Z" transform="translate(-37.28 -22.94)"/><path class="cls-1" d="M198.27,225.87l2.72-1.55L207,235l6.48-3.67,1.33,2.33-9.19,5.21Z" transform="translate(-37.28 -22.94)"/><path class="cls-1" d="M223.08,210.09a3.75,3.75,0,0,1,2,1.26,3.3,3.3,0,0,1,.93,2.11,3.57,3.57,0,0,1-.29,1.39,3.32,3.32,0,0,1,2.16-.16,4,4,0,0,1,1.88,1.26,4.34,4.34,0,0,1,1.07,2.23,4.19,4.19,0,0,1,0,1.58,4,4,0,0,1-.78,1.67,8.86,8.86,0,0,1-1.43,1.54l-5.06,4.44-9.85-11.19,5.43-4.78A4.58,4.58,0,0,1,223.08,210.09Zm-5.42,6.1,2.17,2.47,2.73-2.39a2.9,2.9,0,0,0,.94-1.33,1.42,1.42,0,0,0-.41-1.38,1.35,1.35,0,0,0-1.51-.5,5.51,5.51,0,0,0-1.48,1Zm3.8,4.32,2.64,3,2.71-2.39a3.5,3.5,0,0,0,1-1.19,1.91,1.91,0,0,0-.5-2,1.6,1.6,0,0,0-1.77-.57,3.8,3.8,0,0,0-1.28.79Z" transform="translate(-37.28 -22.94)"/><path class="cls-1" d="M242,206.69a7.78,7.78,0,0,1-6.25,7.51,8,8,0,0,1-6.18-2.2q-3.15-2.62-3.28-5.68a6.5,6.5,0,0,1,1.79-4.86,6.58,6.58,0,0,1,4.47-2.66c2-.27,4.06.46,6.16,2.21A8,8,0,0,1,242,206.69Zm-3,0a6.29,6.29,0,0,0-2.29-3.32,6.11,6.11,0,0,0-3.68-1.65,3.53,3.53,0,0,0-2.93,1.39,3.61,3.61,0,0,0-.84,3.14,6.1,6.1,0,0,0,2.27,3.33,6,6,0,0,0,3.69,1.63,3.83,3.83,0,0,0,3.78-4.52Z" transform="translate(-37.28 -22.94)"/><path class="cls-1" d="M235.75,191.65l1.82-3,15.5,3.19-1.75,2.9-3.13-.75-2.84,4.7,2.11,2.46-1.69,2.79Zm7.83,5,2-3.26-6-1.43Z" transform="translate(-37.28 -22.94)"/><path class="cls-1" d="M244.74,174.28a3.7,3.7,0,0,1,1.5-.89,4.75,4.75,0,0,1,1.44-.22,4,4,0,0,1,1.57.35A4.59,4.59,0,0,1,251,174.8a3.14,3.14,0,0,1,.67,2.19,2.7,2.7,0,0,1,1.65-.89,4.77,4.77,0,0,1,2.32.48l.93.39a7.73,7.73,0,0,0,1.31.44,1.27,1.27,0,0,0,1-.21l.34.14-1.31,3.2-.82-.13a6.71,6.71,0,0,1-1.24-.37l-1.28-.5a2.86,2.86,0,0,0-2-.27,2.49,2.49,0,0,0-1.11,1.46l-1.16,2.81,5.42,2.23-1.17,2.81-13.8-5.67,2.72-6.6A6.24,6.24,0,0,1,244.74,174.28Zm-.4,6.8,3.71,1.53,1.28-3.11a4.05,4.05,0,0,0,.35-1.48,1.67,1.67,0,0,0-1.23-1.45,1.87,1.87,0,0,0-2,.1,3.22,3.22,0,0,0-.8,1.23Z" transform="translate(-37.28 -22.94)"/><path class="cls-1" d="M248.37,161.35a5,5,0,0,1,2.44-2,6.44,6.44,0,0,1,2.58-.47,11.12,11.12,0,0,1,2.47.31,9.91,9.91,0,0,1,4.63,2.35A5.36,5.36,0,0,1,262,167l-1.52,6.26L246,169.77l1.5-6.26A8.2,8.2,0,0,1,248.37,161.35Zm.87,6.09,9.46,2.29.67-2.79a3.11,3.11,0,0,0-1.39-3.5,7.61,7.61,0,0,0-2.65-1.15,7.09,7.09,0,0,0-3.57-.12,3,3,0,0,0-1.86,2.47Z" transform="translate(-37.28 -22.94)"/><text class="cls-4" transform="matrix(2.02, -0.64, 0.3, 0.95, 304.3, 244.21)"><tspan class="cls-5">W</tspan><tspan class="cls-6" x="61.05" y="0">A</tspan><tspan x="101.13" y="0">TS</tspan></text><path d="M502.63,65.15a4.94,4.94,0,0,0,1.68-1.49,3,3,0,0,0,.58-1.76,1.59,1.59,0,0,0-.56-1.36,2.22,2.22,0,0,0-1.38-.42,2.18,2.18,0,0,0-1.4.48,1.83,1.83,0,0,0-.62,1.54,2.76,2.76,0,0,0,.52,1.62A9.14,9.14,0,0,0,502.63,65.15Z" transform="translate(-37.28 -22.94)"/><path d="M447.44,144.06a2.35,2.35,0,0,0,2.15-1.23,8.32,8.32,0,0,0,.71-3.85c-1.47,1.51-3,3-4.54,4.49A2.55,2.55,0,0,0,447.44,144.06Z" transform="translate(-37.28 -22.94)"/><path d="M482.55,111.54a2.54,2.54,0,0,0,2.47-1.48,10,10,0,0,0,.73-4.29,9.52,9.52,0,0,0-.73-4.21,2.88,2.88,0,0,0-5,0,9.35,9.35,0,0,0-.75,4.21,9.76,9.76,0,0,0,.75,4.29A2.61,2.61,0,0,0,482.55,111.54Z" transform="translate(-37.28 -22.94)"/><path d="M502.36,78.15a5.94,5.94,0,0,0,1.93-.29,4.5,4.5,0,0,0,1.27-.65l-4.78-4.87a3.93,3.93,0,0,0-1.21,1.4,3.77,3.77,0,0,0-.38,1.65,2.53,2.53,0,0,0,.87,2A3.32,3.32,0,0,0,502.36,78.15Z" transform="translate(-37.28 -22.94)"/><path d="M472.27,133.1a2.6,2.6,0,0,0-2.49,1.45,9.2,9.2,0,0,0-.76,4.21,9.6,9.6,0,0,0,.76,4.29,2.61,2.61,0,0,0,2.53,1.48,2.55,2.55,0,0,0,2.47-1.48,10.1,10.1,0,0,0,.73-4.29,9.67,9.67,0,0,0-.73-4.21A2.6,2.6,0,0,0,472.27,133.1Z" transform="translate(-37.28 -22.94)"/><path d="M450.23,23.52c14.89,12.87,23.65,25.73,27.67,38.38h1.37l-1,1.23a56.55,56.55,0,0,1-.08,32.05,13.75,13.75,0,0,1,4.41-.68,11.62,11.62,0,0,1,5.59,1.3A9.54,9.54,0,0,1,492,99.62a12.51,12.51,0,0,1,1.4,6.15c0,3.66-1,6.48-2.92,8.44a10.85,10.85,0,0,1-8,3,11.51,11.51,0,0,1-5.61-1.33A9.41,9.41,0,0,1,473,112a10.5,10.5,0,0,1-.77-2.08,117.77,117.77,0,0,1-15.44,22A19.74,19.74,0,0,1,457,145a8.54,8.54,0,0,1-2.85,3.84,6.84,6.84,0,0,1-4.09,1.29,6.52,6.52,0,0,1-3.58-.84,8.31,8.31,0,0,1-2-1.7h-.24c.06.51.11,1,.16,1.63a19.9,19.9,0,0,1,.08,2v8h-7.55v-7.7C387.22,194.37,313,223.74,313,223.74L671.82,110.13Zm42.36,56.57a7.55,7.55,0,0,1-1.18-4.15,7.66,7.66,0,0,1,1.36-4.49,10.55,10.55,0,0,1,3.89-3.26,10.88,10.88,0,0,1-1.85-2.87,8.32,8.32,0,0,1-.68-3.42,6,6,0,0,1,2.28-4.82q2.26-1.9,6.66-1.9A10.17,10.17,0,0,1,509.38,57a5.89,5.89,0,0,1,2.31,4.94,6.68,6.68,0,0,1-1.42,4.25,13.45,13.45,0,0,1-3.68,3.15l3.83,3.63a14.43,14.43,0,0,0,2-5h7.83a25,25,0,0,1-1.9,5.54,20.85,20.85,0,0,1-2.73,4.39l6.17,5.93H512l-1.89-2c-.71.45-1.42.85-2.12,1.21a10.55,10.55,0,0,1-2.53.85,19.19,19.19,0,0,1-3.85.31,12.85,12.85,0,0,1-5.6-1.1A8.26,8.26,0,0,1,492.59,80.09Zm18.31,21.45a2.17,2.17,0,0,0-2-1.11,2.82,2.82,0,0,0-2.87,1.76,13.64,13.64,0,0,0-.73,5v9.57h-7.55V94.89h5.69l1,2.89h.28a7.09,7.09,0,0,1,2.71-2.41,8.52,8.52,0,0,1,4-.87A8,8,0,0,1,517,96.42c1.42,1.28,2.14,3.31,2.14,6.11v14.23h-7.56V104.82A6.78,6.78,0,0,0,510.9,101.54ZM480.25,147.2a10.81,10.81,0,0,1-8,3,11.58,11.58,0,0,1-5.62-1.33,9.44,9.44,0,0,1-3.85-3.87,12.67,12.67,0,0,1-1.41-6.19c0-3.61,1-6.4,2.93-8.34a10.91,10.91,0,0,1,8.07-2.93,11.65,11.65,0,0,1,5.59,1.3,9.39,9.39,0,0,1,3.83,3.82,12.38,12.38,0,0,1,1.41,6.15C483.18,142.42,482.2,145.24,480.25,147.2Zm22.07-12.36-1-.15a11.21,11.21,0,0,0-1.6-.08,8.77,8.77,0,0,0-2.06.27,3.56,3.56,0,0,0-1.88,1.21A4.53,4.53,0,0,0,495,139v10.76h-7.55V127.88h5.61l1.19,3.48h.36a8.13,8.13,0,0,1,2.55-2.75,6.06,6.06,0,0,1,3.5-1.12,8.41,8.41,0,0,1,1.3.1l1,.14Zm18.07,14.08a20,20,0,0,1-2.61.87,14.32,14.32,0,0,1-3.52.36,9.7,9.7,0,0,1-3.76-.68,4.9,4.9,0,0,1-2.51-2.31,9.82,9.82,0,0,1-.89-4.61v-9h-2.65v-3.08l3.36-2.38,1.94-4.59h4.94v4.39h5.38v5.66h-5.38V142a1.85,1.85,0,0,0,2.06,2.13,7.91,7.91,0,0,0,1.86-.21c.58-.15,1.17-.33,1.78-.54Z" transform="translate(-37.28 -22.94)"/><path d="M386.27,83.77,389,71.47c.05-.23.14-.63.25-1.18s.25-1.19.38-1.9.26-1.41.38-2.1.2-1.26.25-1.74q.09.72.24,1.74c.11.69.23,1.39.38,2.1s.27,1.34.37,1.9.19.95.24,1.18l2.69,12.3h9l7-28.23H402.8l-3.13,14.19c-.1.48-.25,1.18-.43,2.12s-.37,1.89-.55,2.86-.32,1.8-.4,2.46c-.08-.77-.21-1.66-.39-2.69s-.39-2.07-.6-3.13-.41-2-.61-2.94-.36-1.64-.49-2.2l-2.42-10.67h-7.07l-2.5,10.67-.49,2.22c-.2.89-.4,1.86-.61,2.9s-.41,2.08-.58,3.11-.31,1.94-.41,2.73c-.05-.48-.15-1.07-.28-1.76s-.27-1.42-.41-2.16L381,71.18c-.13-.65-.24-1.15-.31-1.49l-3.09-14.15h-7.35l7,28.23Z" transform="translate(-37.28 -22.94)"/><path d="M416.88,82.84a11.62,11.62,0,0,0,5.61,1.32,10.84,10.84,0,0,0,8-2.94c1.94-2,2.92-4.78,2.92-8.44a12.48,12.48,0,0,0-1.4-6.15,9.48,9.48,0,0,0-3.84-3.82,11.62,11.62,0,0,0-5.59-1.3q-5.14,0-8.07,2.92c-2,1.95-2.92,4.74-2.92,8.35A12.6,12.6,0,0,0,413,79,9.37,9.37,0,0,0,416.88,82.84ZM420,68.56a2.89,2.89,0,0,1,5,0,9.6,9.6,0,0,1,.73,4.22,10,10,0,0,1-.73,4.29,2.55,2.55,0,0,1-2.47,1.48A2.62,2.62,0,0,1,420,77.07a9.75,9.75,0,0,1-.76-4.29A9.41,9.41,0,0,1,420,68.56Z" transform="translate(-37.28 -22.94)"/><path d="M445.3,73a4.53,4.53,0,0,1,.77-2.9A3.56,3.56,0,0,1,448,68.9a8.75,8.75,0,0,1,2.06-.28,12.94,12.94,0,0,1,1.6.08l1,.16.67-7.11-1-.14a8.41,8.41,0,0,0-1.3-.1,6.06,6.06,0,0,0-3.5,1.12,8.13,8.13,0,0,0-2.55,2.75h-.36l-1.19-3.48h-5.61V83.77h7.55Z" transform="translate(-37.28 -22.94)"/><path d="M470.85,61.9l-4.91,6.17-1,1.42c-.37.53-.8,1.19-1.3,2h-.16c.13-.89.24-1.88.32-3s.12-2.07.12-3V53.72h-7.6V83.77h7.6v-6l2.45-1.86,4.78,7.83h8.62L471.68,71.2l6.58-8.07c-.12-.41-.23-.82-.36-1.23Z" transform="translate(-37.28 -22.94)"/><polygon points="285.92 93.83 293.55 93.83 293.55 71.84 300.43 71.84 300.43 65.59 279.04 65.59 279.04 71.84 285.92 71.84 285.92 93.83"/><path d="M346.89,106a4.54,4.54,0,0,1,.77-2.91,3.52,3.52,0,0,1,1.88-1.21,8.63,8.63,0,0,1,2-.27,11.13,11.13,0,0,1,1.6.08c.39,0,.71.1,1,.15l.68-7.11-1-.14a8.53,8.53,0,0,0-1.31-.1,6,6,0,0,0-3.5,1.13,8.21,8.21,0,0,0-2.55,2.74h-.35L345,94.89h-5.61v21.87h7.55Z" transform="translate(-37.28 -22.94)"/><path d="M362.55,117.16a12.31,12.31,0,0,0,3.08-.34,6.07,6.07,0,0,0,2.21-1.07,11.18,11.18,0,0,0,1.9-1.88h.16l1.46,2.89h5.22V102.41a7.4,7.4,0,0,0-2.33-5.85,9.5,9.5,0,0,0-6.49-2.06,27.23,27.23,0,0,0-5.35.49,16.3,16.3,0,0,0-4.29,1.49l2.17,5a25.93,25.93,0,0,1,3.2-1.17,10.68,10.68,0,0,1,2.89-.45,2.87,2.87,0,0,1,1.94.61,2.64,2.64,0,0,1,.71,2.08v.31l-3.64.12a13.26,13.26,0,0,0-7.06,1.9,5.93,5.93,0,0,0-2.43,5.22c0,2.4.64,4.18,1.9,5.34A6.77,6.77,0,0,0,362.55,117.16Zm1.85-9.35a5.25,5.25,0,0,1,2.93-.74l1.74-.08v1.7a2.88,2.88,0,0,1-1,2.26,3.38,3.38,0,0,1-2.35.87,2.24,2.24,0,0,1-1.58-.54,2.07,2.07,0,0,1-.6-1.64A2.19,2.19,0,0,1,364.4,107.81Z" transform="translate(-37.28 -22.94)"/><path d="M403.07,116.76V102.53c0-2.8-.71-4.83-2.13-6.11a8,8,0,0,0-5.54-1.92,8.54,8.54,0,0,0-4,.87,7.16,7.16,0,0,0-2.71,2.41h-.28l-1-2.89h-5.7v21.87h7.55v-9.57a13.4,13.4,0,0,1,.74-5,2.8,2.8,0,0,1,2.86-1.76,2.15,2.15,0,0,1,2,1.11,6.78,6.78,0,0,1,.63,3.28v11.94Z" transform="translate(-37.28 -22.94)"/><path d="M414.9,111.66a21,21,0,0,1-7.59-1.78v6.05a17.71,17.71,0,0,0,3.73,1,30.63,30.63,0,0,0,4.17.26,13.39,13.39,0,0,0,5.36-.91,6.2,6.2,0,0,0,3-2.53,7.29,7.29,0,0,0,.92-3.68,7.18,7.18,0,0,0-.61-3.16,5.57,5.57,0,0,0-1.85-2.14,17.22,17.22,0,0,0-3.15-1.66c-1.21-.47-2.13-.85-2.77-1.13a5,5,0,0,1-1.28-.71,1,1,0,0,1-.34-.73c0-.61.62-.91,1.86-.91A11.58,11.58,0,0,1,419,100a20.51,20.51,0,0,1,3.28,1.19l2.06-4.86a24.43,24.43,0,0,0-4-1.39,17,17,0,0,0-4.07-.47,11.75,11.75,0,0,0-6.54,1.62,5.38,5.38,0,0,0-2.47,4.82,6,6,0,0,0,1.34,4.19,10.81,10.81,0,0,0,4.07,2.62c1.24.5,2.2.89,2.87,1.18a5.31,5.31,0,0,1,1.4.79,1.08,1.08,0,0,1,.4.83C417.35,111.29,416.53,111.66,414.9,111.66Z" transform="translate(-37.28 -22.94)"/><path d="M429.66,86.75a2.85,2.85,0,0,0-1.16,2.69,2.81,2.81,0,0,0,1.16,2.63,5.49,5.49,0,0,0,2.83.69,5.62,5.62,0,0,0,2.83-.69,2.78,2.78,0,0,0,1.21-2.63,2.81,2.81,0,0,0-1.21-2.69,5.72,5.72,0,0,0-2.83-.67A5.59,5.59,0,0,0,429.66,86.75Z" transform="translate(-37.28 -22.94)"/><rect x="391.41" y="71.96" width="7.55" height="21.87"/><path d="M455.54,100.55V94.89h-5.37V90.51h-4.95l-1.94,4.58-3.36,2.38v3.08h2.65v9a9.82,9.82,0,0,0,.89,4.61,4.93,4.93,0,0,0,2.51,2.31,9.74,9.74,0,0,0,3.76.68,14.32,14.32,0,0,0,3.52-.36,20,20,0,0,0,2.61-.87v-5.5c-.61.22-1.2.39-1.78.54a7.9,7.9,0,0,1-1.86.22c-1.37,0-2.05-.72-2.05-2.14v-8.5Z" transform="translate(-37.28 -22.94)"/><path d="M466.36,86.75a5.72,5.72,0,0,0-2.83-.67,5.57,5.57,0,0,0-2.83.67,2.83,2.83,0,0,0-1.16,2.69,2.79,2.79,0,0,0,1.16,2.63,5.47,5.47,0,0,0,2.83.69,5.62,5.62,0,0,0,2.83-.69,2.77,2.77,0,0,0,1.2-2.63A2.81,2.81,0,0,0,466.36,86.75Z" transform="translate(-37.28 -22.94)"/><rect x="422.45" y="71.96" width="7.55" height="21.87"/><path d="M474.52,97.43q-2.92,2.92-2.92,8.34a13.79,13.79,0,0,0,.63,4.11,76.53,76.53,0,0,0,5.95-14.7A9.5,9.5,0,0,0,474.52,97.43Z" transform="translate(-37.28 -22.94)"/><path d="M371.88,127.21a12.1,12.1,0,0,1,3.26.5,25.68,25.68,0,0,1,3.58,1.32l2.33-5.89a32.79,32.79,0,0,0-3.95-1.38,17.87,17.87,0,0,0-5-.64,15.22,15.22,0,0,0-5.55.93,8.12,8.12,0,0,0-3.74,2.77,7.59,7.59,0,0,0-1.34,4.57,8.46,8.46,0,0,0,.83,4,7.69,7.69,0,0,0,2.37,2.69,21,21,0,0,0,3.64,2.05c1.84.85,3.15,1.49,3.93,1.94a2,2,0,0,1,1.17,1.78,1.78,1.78,0,0,1-.79,1.5,4.15,4.15,0,0,1-2.49.6,16.7,16.7,0,0,1-4.23-.62,23.57,23.57,0,0,1-4.63-1.75v6.79a19.29,19.29,0,0,0,2.61,1,14.93,14.93,0,0,0,2.71.58,27.68,27.68,0,0,0,3.38.18,13.48,13.48,0,0,0,6.31-1.29,8.47,8.47,0,0,0,4.76-7.69,8,8,0,0,0-.77-3.68,7.25,7.25,0,0,0-2.22-2.57,19.72,19.72,0,0,0-3.49-2c-1.4-.64-2.5-1.16-3.31-1.56a7.69,7.69,0,0,1-1.72-1.13A1.64,1.64,0,0,1,369,129a1.55,1.55,0,0,1,.67-1.3A3.59,3.59,0,0,1,371.88,127.21Z" transform="translate(-37.28 -22.94)"/><path d="M388.68,149.31a8.79,8.79,0,0,0,3.87.84,9.82,9.82,0,0,0,3.8-.74,5.79,5.79,0,0,0,2.81-2.39h.43l1,2.73h5.7V127.88h-7.56v9.57a13.22,13.22,0,0,1-.73,5,2.8,2.8,0,0,1-2.86,1.72,2.1,2.1,0,0,1-2-1.1,6.83,6.83,0,0,1-.61-3.24v-12h-7.55v14.24a9.29,9.29,0,0,0,1,4.59A6.16,6.16,0,0,0,388.68,149.31Z" transform="translate(-37.28 -22.94)"/><path d="M421,149.31a6.52,6.52,0,0,0,3.58.84,6.84,6.84,0,0,0,4.09-1.29,8.54,8.54,0,0,0,2.85-3.84,16.45,16.45,0,0,0,1.05-6.26q0-5.46-2.06-8.36a6.57,6.57,0,0,0-5.69-2.91,6.25,6.25,0,0,0-3.66,1,7.51,7.51,0,0,0-2.15,2.21h-.36l-1.07-2.77h-6.13v31.36H419v-8c0-.76,0-1.44-.08-2s-.11-1.12-.16-1.63H419A8.24,8.24,0,0,0,421,149.31Zm-2-11.19a7.9,7.9,0,0,1,.67-3.51,2.35,2.35,0,0,1,2.29-1.19,2.41,2.41,0,0,1,2.18,1.19,8,8,0,0,1,.75,4.07,8.69,8.69,0,0,1-.73,4.15,2.62,2.62,0,0,1-4.53-.14,9.8,9.8,0,0,1-.63-4Z" transform="translate(-37.28 -22.94)"/><path d="M445.07,142.69a9.6,9.6,0,0,1-.64-4v-.6a7.88,7.88,0,0,1,.68-3.51,2.34,2.34,0,0,1,2.29-1.19,2.4,2.4,0,0,1,2.17,1.19,8,8,0,0,1,.75,4.07c0,.12,0,.19,0,.3q3.39-3.48,6.49-7.06a9.21,9.21,0,0,0-.85-1.52,6.59,6.59,0,0,0-5.69-2.91,6.25,6.25,0,0,0-3.66,1,7.68,7.68,0,0,0-2.16,2.21h-.35L443,127.88h-6.13v23.66c3.06-2.64,6-5.33,8.88-8.07A2.1,2.1,0,0,1,445.07,142.69Z" transform="translate(-37.28 -22.94)"/></svg>